M48
METRIC,LZ,000.000
;FILE_FORMAT=3:3
;TYPE=NON_PLATED
;Layer: NPTH_Through
;EasyEDA v6.5.47, 2024-10-10 17:33:07
;1afe02ac590648b8963bdaa5cf7a1cf7,02b1cd47abf14eeea88f237cf3128960,10
;Gerber Generator version 0.2
;Holesize 1 = 1.701 mm
T01C1.701
;Holesize 2 = 3.000 mm
T02C3.000
;Holesize 3 = 4.000 mm
T03C4.000
%
G05
G90
T01
X021209Y155956
X011049Y155956
X041148Y155956
X030988Y155956
X021209Y136017
X011049Y136017
X041148Y136017
X030988Y136017
T02
X018669Y161036
X012319Y158496
X038608Y161036
X032258Y158496
X018669Y141097
X012319Y138557
X038608Y141097
X032258Y138557
T03
X016129Y155956
X036068Y155956
X016129Y136017
X036068Y136017
M30
