G04 Layer: BottomSilkscreenLayer*
G04 EasyEDA v6.5.47, 2024-10-10 17:33:07*
G04 1afe02ac590648b8963bdaa5cf7a1cf7,02b1cd47abf14eeea88f237cf3128960,10*
G04 Gerber Generator version 0.2*
G04 Scale: 100 percent, Rotated: No, Reflected: No *
G04 Dimensions in millimeters *
G04 leading zeros omitted , absolute positions ,4 integer and 5 decimal *
%FSLAX45Y45*%
%MOMM*%

%ADD10C,0.1524*%
%ADD11C,0.1270*%
%ADD12C,0.2000*%

%LPD*%
D10*
X799084Y14757400D02*
G01*
X908050Y14757400D01*
X799084Y14757400D02*
G01*
X799084Y14710663D01*
X804163Y14695170D01*
X809497Y14689836D01*
X819912Y14684755D01*
X835405Y14684755D01*
X845820Y14689836D01*
X850900Y14695170D01*
X856234Y14710663D01*
X856234Y14757400D01*
X819912Y14650466D02*
G01*
X814578Y14640052D01*
X799084Y14624304D01*
X908050Y14624304D01*
X2831084Y14630400D02*
G01*
X2940050Y14630400D01*
X2831084Y14630400D02*
G01*
X2831084Y14583663D01*
X2836163Y14568170D01*
X2841497Y14562836D01*
X2851911Y14557755D01*
X2867406Y14557755D01*
X2877820Y14562836D01*
X2882900Y14568170D01*
X2888234Y14583663D01*
X2888234Y14630400D01*
X2856991Y14518131D02*
G01*
X2851911Y14518131D01*
X2841497Y14513052D01*
X2836163Y14507718D01*
X2831084Y14497304D01*
X2831084Y14476729D01*
X2836163Y14466316D01*
X2841497Y14460981D01*
X2851911Y14455902D01*
X2862325Y14455902D01*
X2872740Y14460981D01*
X2888234Y14471395D01*
X2940050Y14523466D01*
X2940050Y14450568D01*
D11*
X2362200Y14986000D02*
G01*
X2362200Y14732000D01*
X2489200Y14732000D01*
X2489200Y14986000D01*
X2362200Y14986000D01*
X2463800Y14478000D02*
G01*
X2540000Y14478000D01*
X2540000Y15097988D01*
X944600Y15097988D01*
X944600Y14478000D01*
X1044600Y14478000D01*
X1044600Y14577999D01*
X2463800Y14577999D01*
X2463800Y14478000D01*
X1117600Y14986000D02*
G01*
X1117600Y14732000D01*
X990600Y14732000D01*
X990600Y14986000D01*
X1117600Y14986000D01*
D12*
X2975102Y14879574D02*
G01*
X2975102Y14379702D01*
X4174997Y14379702D01*
X4174997Y14879574D01*
X2975102Y14879574D01*
X3274999Y14439595D02*
G01*
X3274999Y14379600D01*
X3874998Y14379600D01*
X3874998Y14439595D01*
X3274999Y14439595D01*
M02*
