G04 Layer: TopSilkscreenLayer*
G04 EasyEDA v6.5.47, 2024-10-10 17:33:07*
G04 1afe02ac590648b8963bdaa5cf7a1cf7,02b1cd47abf14eeea88f237cf3128960,10*
G04 Gerber Generator version 0.2*
G04 Scale: 100 percent, Rotated: No, Reflected: No *
G04 Dimensions in millimeters *
G04 leading zeros omitted , absolute positions ,4 integer and 5 decimal *
%FSLAX45Y45*%
%MOMM*%

%ADD10C,0.1524*%
%ADD11C,0.2540*%

%LPD*%
D10*
X1206497Y16193485D02*
G01*
X1206497Y16084519D01*
X1279141Y16193485D02*
G01*
X1206497Y16120841D01*
X1232405Y16146749D02*
G01*
X1279141Y16084519D01*
X1313431Y16193485D02*
G01*
X1313431Y16084519D01*
X1313431Y16193485D02*
G01*
X1380995Y16193485D01*
X1313431Y16141669D02*
G01*
X1355087Y16141669D01*
X1313431Y16084519D02*
G01*
X1380995Y16084519D01*
X1415285Y16193485D02*
G01*
X1456941Y16141669D01*
X1456941Y16084519D01*
X1498597Y16193485D02*
G01*
X1456941Y16141669D01*
X1532887Y16172657D02*
G01*
X1543047Y16177991D01*
X1558795Y16193485D01*
X1558795Y16084519D01*
X3187700Y16193516D02*
G01*
X3187700Y16084550D01*
X3260343Y16193516D02*
G01*
X3187700Y16120871D01*
X3213608Y16146779D02*
G01*
X3260343Y16084550D01*
X3294634Y16193516D02*
G01*
X3294634Y16084550D01*
X3294634Y16193516D02*
G01*
X3362197Y16193516D01*
X3294634Y16141700D02*
G01*
X3336290Y16141700D01*
X3294634Y16084550D02*
G01*
X3362197Y16084550D01*
X3396488Y16193516D02*
G01*
X3438143Y16141700D01*
X3438143Y16084550D01*
X3479800Y16193516D02*
G01*
X3438143Y16141700D01*
X3519170Y16167607D02*
G01*
X3519170Y16172687D01*
X3524250Y16183102D01*
X3529584Y16188436D01*
X3539997Y16193516D01*
X3560825Y16193516D01*
X3571240Y16188436D01*
X3576320Y16183102D01*
X3581400Y16172687D01*
X3581400Y16162274D01*
X3576320Y16151860D01*
X3565906Y16136366D01*
X3514090Y16084550D01*
X3586734Y16084550D01*
X1168402Y14212288D02*
G01*
X1168402Y14103322D01*
X1241046Y14212288D02*
G01*
X1168402Y14139644D01*
X1194310Y14165552D02*
G01*
X1241046Y14103322D01*
X1275336Y14212288D02*
G01*
X1275336Y14103322D01*
X1275336Y14212288D02*
G01*
X1342900Y14212288D01*
X1275336Y14160472D02*
G01*
X1316992Y14160472D01*
X1275336Y14103322D02*
G01*
X1342900Y14103322D01*
X1377190Y14212288D02*
G01*
X1418846Y14160472D01*
X1418846Y14103322D01*
X1460502Y14212288D02*
G01*
X1418846Y14160472D01*
X1504952Y14212288D02*
G01*
X1562102Y14212288D01*
X1531114Y14170632D01*
X1546608Y14170632D01*
X1557022Y14165552D01*
X1562102Y14160472D01*
X1567436Y14144724D01*
X1567436Y14134310D01*
X1562102Y14118816D01*
X1551942Y14108402D01*
X1536194Y14103322D01*
X1520700Y14103322D01*
X1504952Y14108402D01*
X1499872Y14113482D01*
X1494792Y14123896D01*
X3162300Y14174188D02*
G01*
X3162300Y14065222D01*
X3234943Y14174188D02*
G01*
X3162300Y14101544D01*
X3188208Y14127452D02*
G01*
X3234943Y14065222D01*
X3269234Y14174188D02*
G01*
X3269234Y14065222D01*
X3269234Y14174188D02*
G01*
X3336797Y14174188D01*
X3269234Y14122372D02*
G01*
X3310890Y14122372D01*
X3269234Y14065222D02*
G01*
X3336797Y14065222D01*
X3371088Y14174188D02*
G01*
X3412743Y14122372D01*
X3412743Y14065222D01*
X3454400Y14174188D02*
G01*
X3412743Y14122372D01*
X3540506Y14174188D02*
G01*
X3488690Y14101544D01*
X3566413Y14101544D01*
X3540506Y14174188D02*
G01*
X3540506Y14065222D01*
D11*
X912898Y16295568D02*
G01*
X2312896Y16295568D01*
X2312896Y14895570D01*
X912898Y14895570D01*
X912898Y16295568D01*
X2906793Y16295598D02*
G01*
X4306790Y16295598D01*
X4306790Y14895601D01*
X2906793Y14895601D01*
X2906793Y16295598D01*
X912901Y14301670D02*
G01*
X2312898Y14301670D01*
X2312898Y12901673D01*
X912901Y12901673D01*
X912901Y14301670D01*
X2906793Y14301670D02*
G01*
X4306790Y14301670D01*
X4306790Y12901673D01*
X2906793Y12901673D01*
X2906793Y14301670D01*
M02*
