M48
METRIC,LZ,000.000
;FILE_FORMAT=3:3
;TYPE=PLATED
;Layer: PTH_Through
;EasyEDA v6.5.47, 2024-10-10 17:33:07
;2650b285be984398968929de45cde97e,02b1cd47abf14eeea88f237cf3128960,10
;Gerber Generator version 0.2
;Holesize 1 = 0.801 mm
T01C0.801
;Holesize 2 = 0.900 mm
T02C0.900
;Holesize 3 = 0.901 mm
T03C0.901
%
G05
G90
T01
X033023Y160893G85X033017Y160893
X033023Y158893G85X033017Y158893
X033023Y156893G85X033017Y156893
X033023Y152893G85X033017Y152893
X033023Y154893G85X033017Y154893
X033023Y150893G85X033017Y150893
X033023Y148893G85X033017Y148893
X033531Y142732G85X033525Y142732
X033531Y140732G85X033525Y140732
X033531Y138732G85X033525Y138732
X033531Y134732G85X033525Y134732
X033531Y136732G85X033525Y136732
X033531Y132732G85X033525Y132732
X033531Y130732G85X033525Y130732
X041889Y140944G85X041884Y140944
X041889Y138944G85X041884Y138944
X041889Y136944G85X041884Y136944
X041889Y132944G85X041884Y132944
X041889Y134944G85X041884Y134944
X041889Y130944G85X041884Y130944
X041889Y128944G85X041884Y128944
X041278Y159115G85X041272Y159115
X041278Y157115G85X041272Y157115
X041278Y155115G85X041272Y155115
X041278Y151115G85X041272Y151115
X041278Y153115G85X041272Y153115
X041278Y149115G85X041272Y149115
X041278Y147115G85X041272Y147115
T02
X028575Y132207
X028575Y134747
X028575Y137287
X028575Y139827
X028575Y142367
X028575Y144907
X028575Y147447
X028575Y149987
X028575Y152527
X028575Y155067
X028575Y157607
X028575Y160147
X013335Y160147
X013335Y157607
X013335Y155067
X013335Y152527
X013335Y149987
X013335Y147447
X013335Y144907
X013335Y142367
X013335Y139827
X013335Y137287
X013335Y134747
X013335Y132207
T03
X036703Y159131
X036703Y157131
X036703Y155131
X036703Y153131
X036703Y151131
X037211Y140843
X037211Y138843
X037211Y136843
X037211Y134843
X037211Y132843
X045593Y138938
X045593Y136938
X045593Y134938
X045593Y132938
X045593Y130938
X045085Y157099
X045085Y155099
X045085Y153099
X045085Y151099
X045085Y149099
M30
