G04 Layer: BottomLayer*
G04 EasyEDA v6.5.47, 2024-10-10 17:33:07*
G04 2650b285be984398968929de45cde97e,02b1cd47abf14eeea88f237cf3128960,10*
G04 Gerber Generator version 0.2*
G04 Scale: 100 percent, Rotated: No, Reflected: No *
G04 Dimensions in millimeters *
G04 leading zeros omitted , absolute positions ,4 integer and 5 decimal *
%FSLAX45Y45*%
%MOMM*%

%AMMACRO1*21,1,$1,$2,0,0,$3*%
%ADD10C,0.3000*%
%ADD11C,1.6510*%
%ADD12R,1.6510X1.6510*%
%ADD13MACRO1,1.3081X1.3081X0.0000*%
%ADD14C,1.3081*%
%ADD15MACRO1,1.6X1.6X0.0000*%
%ADD16C,1.6000*%

%LPD*%
D10*
X4508502Y14909901D02*
G01*
X4329102Y14909901D01*
X4127502Y15111501D01*
X2857502Y14490700D02*
G01*
X3232914Y14490700D01*
X3910053Y15167838D01*
X3910053Y15294051D01*
X4127502Y15511500D01*
X2857502Y13982700D02*
G01*
X3248586Y14373783D01*
X3652624Y14373783D01*
X3970276Y14056131D01*
X3970276Y13512800D01*
X4188691Y13294385D01*
X2857502Y13474700D02*
G01*
X2857502Y13415162D01*
X3484984Y12787680D01*
X4238754Y12787680D01*
X4289275Y12838201D01*
X4289275Y13223773D01*
X4559302Y13493800D01*
X3670302Y15513100D02*
G01*
X3478202Y15513100D01*
X3302002Y15689300D01*
X3302002Y16089299D02*
G01*
X3201545Y16089299D01*
X2857502Y15760700D02*
G01*
X2872945Y15760700D01*
X3201545Y16089299D01*
X4559302Y13893800D02*
G01*
X4559302Y14008862D01*
X4559302Y14008862D02*
G01*
X4624885Y14074444D01*
X4624885Y15593517D01*
X4508502Y15709900D01*
X2857502Y13728700D02*
G01*
X2736903Y13849299D01*
X2736903Y14032966D01*
X2813636Y14109700D01*
X2902790Y14109700D01*
X3217064Y14423974D01*
X3680310Y14423974D01*
X4036570Y14067713D01*
X4036570Y13646505D01*
X4188691Y13494385D01*
D11*
G01*
X2857500Y13220700D03*
G01*
X2857500Y13474700D03*
G01*
X2857500Y13728700D03*
G01*
X2857500Y13982700D03*
G01*
X2857500Y14236700D03*
G01*
X2857500Y14490700D03*
G01*
X2857500Y14744700D03*
G01*
X2857500Y14998700D03*
G01*
X2857500Y15252700D03*
G01*
X2857500Y15506700D03*
G01*
X2857500Y15760700D03*
G01*
X2857500Y16014700D03*
D12*
G01*
X1333500Y16014700D03*
D11*
G01*
X1333500Y15760700D03*
G01*
X1333500Y15506700D03*
G01*
X1333500Y15252700D03*
G01*
X1333500Y14998700D03*
G01*
X1333500Y14744700D03*
G01*
X1333500Y14490700D03*
G01*
X1333500Y14236700D03*
G01*
X1333500Y13982700D03*
G01*
X1333500Y13728700D03*
G01*
X1333500Y13474700D03*
G01*
X1333500Y13220700D03*
D13*
G01*
X3302000Y16089299D03*
D14*
G01*
X3302000Y15889300D03*
G01*
X3302000Y15689300D03*
G01*
X3302000Y15289301D03*
G01*
X3302000Y15489301D03*
G01*
X3302000Y15089301D03*
G01*
X3302000Y14889302D03*
D13*
G01*
X3352800Y14273199D03*
D14*
G01*
X3352800Y14073200D03*
G01*
X3352800Y13873200D03*
G01*
X3352800Y13473201D03*
G01*
X3352800Y13673201D03*
G01*
X3352800Y13273201D03*
G01*
X3352800Y13073202D03*
D13*
G01*
X4188688Y14094383D03*
D14*
G01*
X4188688Y13894384D03*
G01*
X4188688Y13694384D03*
G01*
X4188688Y13294385D03*
G01*
X4188688Y13494385D03*
G01*
X4188688Y13094385D03*
G01*
X4188688Y12894386D03*
D13*
G01*
X4127500Y15911499D03*
D14*
G01*
X4127500Y15711500D03*
G01*
X4127500Y15511500D03*
G01*
X4127500Y15111501D03*
G01*
X4127500Y15311501D03*
G01*
X4127500Y14911501D03*
G01*
X4127500Y14711502D03*
D15*
G01*
X3670300Y15913100D03*
D16*
G01*
X3670300Y15713100D03*
G01*
X3670300Y15513100D03*
G01*
X3670300Y15313101D03*
G01*
X3670300Y15113101D03*
D15*
G01*
X3721100Y14084300D03*
D16*
G01*
X3721100Y13884300D03*
G01*
X3721100Y13684300D03*
G01*
X3721100Y13484301D03*
G01*
X3721100Y13284301D03*
D15*
G01*
X4559300Y13893800D03*
D16*
G01*
X4559300Y13693800D03*
G01*
X4559300Y13493800D03*
G01*
X4559300Y13293801D03*
G01*
X4559300Y13093801D03*
D15*
G01*
X4508500Y15709900D03*
D16*
G01*
X4508500Y15509900D03*
G01*
X4508500Y15309900D03*
G01*
X4508500Y15109901D03*
G01*
X4508500Y14909901D03*
M02*
