G04 Layer: BottomSolderMaskLayer*
G04 EasyEDA v6.5.47, 2024-10-10 17:33:07*
G04 2650b285be984398968929de45cde97e,02b1cd47abf14eeea88f237cf3128960,10*
G04 Gerber Generator version 0.2*
G04 Scale: 100 percent, Rotated: No, Reflected: No *
G04 Dimensions in millimeters *
G04 leading zeros omitted , absolute positions ,4 integer and 5 decimal *
%FSLAX45Y45*%
%MOMM*%

%AMMACRO1*4,1,8,-0.8677,-0.9271,-0.9271,-0.8674,-0.9271,0.8677,-0.8677,0.9271,0.8674,0.9271,0.9271,0.8677,0.9271,-0.8674,0.8674,-0.9271,-0.8677,-0.9271,0*%
%AMMACRO2*4,1,8,-0.6751,-0.7049,-0.7048,-0.6749,-0.7048,0.6751,-0.6751,0.7049,0.6749,0.7049,0.7048,0.6751,0.7048,-0.6749,0.6749,-0.7049,-0.6751,-0.7049,0*%
%AMMACRO3*4,1,8,-0.6751,-0.7049,-0.7049,-0.6749,-0.7049,0.6751,-0.6751,0.7049,0.6749,0.7049,0.7049,0.6751,0.7049,-0.6749,0.6749,-0.7049,-0.6751,-0.7049,0*%
%AMMACRO4*4,1,8,-0.8423,-0.9017,-0.9017,-0.842,-0.9017,0.8423,-0.8423,0.9017,0.842,0.9017,0.9017,0.8423,0.9017,-0.842,0.842,-0.9017,-0.8423,-0.9017,0*%
%ADD10C,1.8542*%
%ADD11MACRO1*%
%ADD12MACRO2*%
%ADD13C,1.5113*%
%ADD14MACRO3*%
%ADD15MACRO4*%
%ADD16C,1.8032*%

%LPD*%
D10*
G01*
X2857500Y13220700D03*
G01*
X2857500Y13474700D03*
G01*
X2857500Y13728700D03*
G01*
X2857500Y13982700D03*
G01*
X2857500Y14236700D03*
G01*
X2857500Y14490700D03*
G01*
X2857500Y14744700D03*
G01*
X2857500Y14998700D03*
G01*
X2857500Y15252700D03*
G01*
X2857500Y15506700D03*
G01*
X2857500Y15760700D03*
G01*
X2857500Y16014700D03*
D11*
G01*
X1333500Y16014700D03*
D10*
G01*
X1333500Y15760700D03*
G01*
X1333500Y15506700D03*
G01*
X1333500Y15252700D03*
G01*
X1333500Y14998700D03*
G01*
X1333500Y14744700D03*
G01*
X1333500Y14490700D03*
G01*
X1333500Y14236700D03*
G01*
X1333500Y13982700D03*
G01*
X1333500Y13728700D03*
G01*
X1333500Y13474700D03*
G01*
X1333500Y13220700D03*
D12*
G01*
X3302000Y16089299D03*
D13*
G01*
X3302000Y15889300D03*
G01*
X3302000Y15689300D03*
G01*
X3302000Y15289301D03*
G01*
X3302000Y15489301D03*
G01*
X3302000Y15089301D03*
G01*
X3302000Y14889302D03*
D12*
G01*
X3352800Y14273199D03*
D13*
G01*
X3352800Y14073200D03*
G01*
X3352800Y13873200D03*
G01*
X3352800Y13473201D03*
G01*
X3352800Y13673201D03*
G01*
X3352800Y13273201D03*
G01*
X3352800Y13073202D03*
D14*
G01*
X4188688Y14094383D03*
D13*
G01*
X4188688Y13894384D03*
G01*
X4188688Y13694384D03*
G01*
X4188688Y13294385D03*
G01*
X4188688Y13494385D03*
G01*
X4188688Y13094385D03*
G01*
X4188688Y12894386D03*
D12*
G01*
X4127500Y15911499D03*
D13*
G01*
X4127500Y15711500D03*
G01*
X4127500Y15511500D03*
G01*
X4127500Y15111501D03*
G01*
X4127500Y15311501D03*
G01*
X4127500Y14911501D03*
G01*
X4127500Y14711502D03*
D15*
G01*
X3670300Y15913100D03*
D16*
G01*
X3670300Y15713100D03*
G01*
X3670300Y15513100D03*
G01*
X3670300Y15313101D03*
G01*
X3670300Y15113101D03*
D15*
G01*
X3721100Y14084300D03*
D16*
G01*
X3721100Y13884300D03*
G01*
X3721100Y13684300D03*
G01*
X3721100Y13484301D03*
G01*
X3721100Y13284301D03*
D15*
G01*
X4559300Y13893800D03*
D16*
G01*
X4559300Y13693800D03*
G01*
X4559300Y13493800D03*
G01*
X4559300Y13293801D03*
G01*
X4559300Y13093801D03*
D15*
G01*
X4508500Y15709900D03*
D16*
G01*
X4508500Y15509900D03*
G01*
X4508500Y15309900D03*
G01*
X4508500Y15109901D03*
G01*
X4508500Y14909901D03*
M02*
